<svg xmlns="http://www.w3.org/2000/svg" xmlns:xlink="http://www.w3.org/1999/xlink" width="500" zoomAndPan="magnify" viewBox="0 0 375 149.999998" height="200" preserveAspectRatio="xMidYMid meet" version="1.0"><defs><g/><clipPath id="cdd69a327b"><rect x="0" width="90" y="0" height="40"/></clipPath><clipPath id="91a33ecc4a"><path d="M 174 0.441406 L 220 0.441406 L 220 74 L 174 74 Z M 174 0.441406 " clip-rule="nonzero"/></clipPath><clipPath id="590eac3ddb"><rect x="0" width="306" y="0" height="101"/></clipPath></defs><g transform="matrix(1, 0, 0, 1, 143, 106)"><g clip-path="url(#cdd69a327b)"><g fill="#ffffff" fill-opacity="1"><g transform="translate(0.878201, 16.073228)"><g><path d="M 6.375 -2.296875 L 3.203125 -2.296875 L 2.484375 0 L 0.25 0 L 3.78125 -9.90625 L 5.828125 -9.90625 L 9.328125 0 L 7.09375 0 Z M 5.828125 -3.984375 L 4.8125 -7.171875 L 4.734375 -7.171875 L 3.734375 -3.984375 Z M 5.828125 -3.984375 "/></g></g></g><g fill="#ffffff" fill-opacity="1"><g transform="translate(9.630907, 16.073228)"><g><path d="M 7.125 -1.921875 L 7.125 0 L 0.734375 0 L 0.734375 -9.90625 L 2.953125 -9.90625 L 2.9375 -1.921875 Z M 7.125 -1.921875 "/></g></g></g><g fill="#ffffff" fill-opacity="1"><g transform="translate(16.429134, 16.073228)"><g><path d="M 7.125 -1.921875 L 7.125 0 L 0.734375 0 L 0.734375 -9.90625 L 2.953125 -9.90625 L 2.9375 -1.921875 Z M 7.125 -1.921875 "/></g></g></g><g fill="#ffffff" fill-opacity="1"><g transform="translate(23.227361, 16.073228)"><g/></g></g><g fill="#ffffff" fill-opacity="1"><g transform="translate(25.705901, 16.073228)"><g><path d="M 7.90625 -7.984375 L 5.296875 -7.984375 L 5.296875 0 L 3.09375 0 L 3.09375 -7.984375 L 0.5 -7.984375 L 0.5 -9.90625 L 7.90625 -9.90625 Z M 7.90625 -7.984375 "/></g></g></g><g fill="#ffffff" fill-opacity="1"><g transform="translate(33.311417, 16.073228)"><g><path d="M 8.890625 -9.90625 L 8.890625 0 L 6.671875 0 L 6.671875 -4.109375 L 2.9375 -4.109375 L 2.9375 0 L 0.734375 0 L 0.734375 -9.90625 L 2.9375 -9.90625 L 2.9375 -5.828125 L 6.671875 -5.828125 L 6.671875 -9.90625 Z M 8.890625 -9.90625 "/></g></g></g><g fill="#ffffff" fill-opacity="1"><g transform="translate(42.290748, 16.073228)"><g><path d="M 2.953125 -7.984375 L 2.953125 -5.875 L 6.71875 -5.875 L 6.71875 -4.15625 L 2.953125 -4.15625 L 2.953125 -1.921875 L 7.4375 -1.921875 L 7.4375 0 L 0.734375 0 L 0.734375 -9.90625 L 7.4375 -9.90625 L 7.4375 -7.984375 Z M 2.953125 -7.984375 "/></g></g></g><g fill="#ffffff" fill-opacity="1"><g transform="translate(49.528034, 16.073228)"><g/></g></g><g fill="#ffffff" fill-opacity="1"><g transform="translate(52.006574, 16.073228)"><g><path d="M 0.125 -9.90625 L 2.328125 -9.90625 L 4.671875 -2.359375 L 4.75 -2.359375 L 7.078125 -9.90625 L 9.28125 -9.90625 L 6.109375 0.015625 L 3.296875 0.015625 Z M 0.125 -9.90625 "/></g></g></g><g fill="#ffffff" fill-opacity="1"><g transform="translate(60.957577, 16.073228)"><g><path d="M 0.828125 -9.90625 L 3.0625 -9.90625 L 3.0625 0 L 0.828125 0 Z M 0.828125 -9.90625 "/></g></g></g><g fill="#ffffff" fill-opacity="1"><g transform="translate(64.215077, 16.073228)"><g><path d="M 0.734375 -9.90625 L 4.984375 -9.90625 C 5.585938 -9.90625 6.097656 -9.789062 6.515625 -9.5625 C 6.941406 -9.34375 7.257812 -9.039062 7.46875 -8.65625 C 7.675781 -8.269531 7.78125 -7.847656 7.78125 -7.390625 C 7.78125 -6.828125 7.640625 -6.367188 7.359375 -6.015625 C 7.078125 -5.671875 6.75 -5.445312 6.375 -5.34375 L 6.375 -5.234375 C 6.65625 -5.203125 6.945312 -5.09375 7.25 -4.90625 C 7.5625 -4.726562 7.820312 -4.46875 8.03125 -4.125 C 8.25 -3.78125 8.359375 -3.363281 8.359375 -2.875 C 8.359375 -2.40625 8.253906 -1.945312 8.046875 -1.5 C 7.835938 -1.050781 7.5 -0.6875 7.03125 -0.40625 C 6.570312 -0.125 6 0.015625 5.3125 0.015625 L 0.734375 0.015625 Z M 4.3125 -5.875 C 4.695312 -5.875 5.023438 -5.960938 5.296875 -6.140625 C 5.578125 -6.316406 5.71875 -6.613281 5.71875 -7.03125 C 5.71875 -7.4375 5.578125 -7.726562 5.296875 -7.90625 C 5.023438 -8.082031 4.695312 -8.171875 4.3125 -8.171875 L 2.90625 -8.171875 L 2.90625 -5.875 Z M 4.8125 -1.734375 C 5.195312 -1.734375 5.535156 -1.828125 5.828125 -2.015625 C 6.117188 -2.210938 6.265625 -2.546875 6.265625 -3.015625 C 6.265625 -3.472656 6.113281 -3.800781 5.8125 -4 C 5.519531 -4.195312 5.1875 -4.296875 4.8125 -4.296875 L 2.90625 -4.296875 L 2.90625 -1.734375 Z M 4.8125 -1.734375 "/></g></g></g><g fill="#ffffff" fill-opacity="1"><g transform="translate(72.273807, 16.073228)"><g><path d="M 2.953125 -7.984375 L 2.953125 -5.875 L 6.71875 -5.875 L 6.71875 -4.15625 L 2.953125 -4.15625 L 2.953125 -1.921875 L 7.4375 -1.921875 L 7.4375 0 L 0.734375 0 L 0.734375 -9.90625 L 7.4375 -9.90625 L 7.4375 -7.984375 Z M 2.953125 -7.984375 "/></g></g></g><g fill="#ffffff" fill-opacity="1"><g transform="translate(79.511093, 16.073228)"><g><path d="M 4.40625 0.125 C 3.613281 0.125 2.925781 -0.03125 2.34375 -0.34375 C 1.757812 -0.65625 1.316406 -1.0625 1.015625 -1.5625 C 0.722656 -2.070312 0.578125 -2.597656 0.578125 -3.140625 L 0.578125 -3.25 L 3 -3.25 L 3 -3.15625 C 3 -2.8125 3.117188 -2.5 3.359375 -2.21875 C 3.609375 -1.9375 3.96875 -1.796875 4.4375 -1.796875 C 4.84375 -1.796875 5.171875 -1.898438 5.421875 -2.109375 C 5.671875 -2.316406 5.796875 -2.59375 5.796875 -2.9375 C 5.796875 -3.238281 5.6875 -3.476562 5.46875 -3.65625 C 5.25 -3.84375 4.984375 -3.96875 4.671875 -4.03125 L 3.546875 -4.265625 C 2.878906 -4.410156 2.257812 -4.691406 1.6875 -5.109375 C 1.113281 -5.523438 0.828125 -6.207031 0.828125 -7.15625 C 0.828125 -7.757812 0.972656 -8.285156 1.265625 -8.734375 C 1.566406 -9.179688 1.976562 -9.519531 2.5 -9.75 C 3.03125 -9.988281 3.628906 -10.109375 4.296875 -10.109375 C 5.066406 -10.109375 5.726562 -9.960938 6.28125 -9.671875 C 6.84375 -9.378906 7.265625 -9 7.546875 -8.53125 C 7.828125 -8.0625 7.96875 -7.570312 7.96875 -7.0625 L 7.96875 -7 L 5.546875 -7 L 5.546875 -7.03125 C 5.546875 -7.332031 5.4375 -7.613281 5.21875 -7.875 C 5.007812 -8.132812 4.675781 -8.265625 4.21875 -8.265625 C 3.863281 -8.265625 3.578125 -8.164062 3.359375 -7.96875 C 3.148438 -7.769531 3.046875 -7.507812 3.046875 -7.1875 C 3.046875 -6.875 3.160156 -6.628906 3.390625 -6.453125 C 3.628906 -6.273438 3.914062 -6.15625 4.25 -6.09375 L 5.390625 -5.828125 C 6.140625 -5.671875 6.773438 -5.367188 7.296875 -4.921875 C 7.828125 -4.484375 8.09375 -3.835938 8.09375 -2.984375 C 8.09375 -2.359375 7.929688 -1.8125 7.609375 -1.34375 C 7.296875 -0.875 6.859375 -0.507812 6.296875 -0.25 C 5.734375 0 5.101562 0.125 4.40625 0.125 Z M 4.40625 0.125 "/></g></g></g><g fill="#ffffff" fill-opacity="1"><g transform="translate(8.992326, 34.957011)"><g><path d="M 4.40625 0.125 C 3.613281 0.125 2.925781 -0.03125 2.34375 -0.34375 C 1.757812 -0.65625 1.316406 -1.0625 1.015625 -1.5625 C 0.722656 -2.070312 0.578125 -2.597656 0.578125 -3.140625 L 0.578125 -3.25 L 3 -3.25 L 3 -3.15625 C 3 -2.8125 3.117188 -2.5 3.359375 -2.21875 C 3.609375 -1.9375 3.96875 -1.796875 4.4375 -1.796875 C 4.84375 -1.796875 5.171875 -1.898438 5.421875 -2.109375 C 5.671875 -2.316406 5.796875 -2.59375 5.796875 -2.9375 C 5.796875 -3.238281 5.6875 -3.476562 5.46875 -3.65625 C 5.25 -3.84375 4.984375 -3.96875 4.671875 -4.03125 L 3.546875 -4.265625 C 2.878906 -4.410156 2.257812 -4.691406 1.6875 -5.109375 C 1.113281 -5.523438 0.828125 -6.207031 0.828125 -7.15625 C 0.828125 -7.757812 0.972656 -8.285156 1.265625 -8.734375 C 1.566406 -9.179688 1.976562 -9.519531 2.5 -9.75 C 3.03125 -9.988281 3.628906 -10.109375 4.296875 -10.109375 C 5.066406 -10.109375 5.726562 -9.960938 6.28125 -9.671875 C 6.84375 -9.378906 7.265625 -9 7.546875 -8.53125 C 7.828125 -8.0625 7.96875 -7.570312 7.96875 -7.0625 L 7.96875 -7 L 5.546875 -7 L 5.546875 -7.03125 C 5.546875 -7.332031 5.4375 -7.613281 5.21875 -7.875 C 5.007812 -8.132812 4.675781 -8.265625 4.21875 -8.265625 C 3.863281 -8.265625 3.578125 -8.164062 3.359375 -7.96875 C 3.148438 -7.769531 3.046875 -7.507812 3.046875 -7.1875 C 3.046875 -6.875 3.160156 -6.628906 3.390625 -6.453125 C 3.628906 -6.273438 3.914062 -6.15625 4.25 -6.09375 L 5.390625 -5.828125 C 6.140625 -5.671875 6.773438 -5.367188 7.296875 -4.921875 C 7.828125 -4.484375 8.09375 -3.835938 8.09375 -2.984375 C 8.09375 -2.359375 7.929688 -1.8125 7.609375 -1.34375 C 7.296875 -0.875 6.859375 -0.507812 6.296875 -0.25 C 5.734375 0 5.101562 0.125 4.40625 0.125 Z M 4.40625 0.125 "/></g></g></g><g fill="#ffffff" fill-opacity="1"><g transform="translate(16.89526, 34.957011)"><g><path d="M 0.828125 -9.90625 L 3.0625 -9.90625 L 3.0625 0 L 0.828125 0 Z M 0.828125 -9.90625 "/></g></g></g><g fill="#ffffff" fill-opacity="1"><g transform="translate(20.152761, 34.957011)"><g><path d="M 0.734375 -9.90625 L 3.296875 -9.90625 L 6.921875 -3.390625 L 6.96875 -3.390625 L 6.96875 -9.90625 L 9.140625 -9.90625 L 9.140625 0.015625 L 6.546875 0.015625 L 2.953125 -6.265625 L 2.921875 -6.265625 L 2.921875 0.015625 L 0.734375 0.015625 Z M 0.734375 -9.90625 "/></g></g></g><g fill="#ffffff" fill-opacity="1"><g transform="translate(29.259541, 34.957011)"><g><path d="M 5.078125 0.125 C 4.128906 0.125 3.3125 -0.109375 2.625 -0.578125 C 1.9375 -1.046875 1.414062 -1.671875 1.0625 -2.453125 C 0.707031 -3.234375 0.53125 -4.082031 0.53125 -5 C 0.53125 -5.914062 0.707031 -6.757812 1.0625 -7.53125 C 1.414062 -8.3125 1.9375 -8.9375 2.625 -9.40625 C 3.3125 -9.875 4.128906 -10.109375 5.078125 -10.109375 C 6.242188 -10.109375 7.191406 -9.765625 7.921875 -9.078125 C 8.660156 -8.398438 9.140625 -7.523438 9.359375 -6.453125 L 7.21875 -6.453125 C 7.101562 -6.941406 6.859375 -7.351562 6.484375 -7.6875 C 6.117188 -8.019531 5.660156 -8.1875 5.109375 -8.1875 C 4.359375 -8.1875 3.789062 -7.890625 3.40625 -7.296875 C 3.019531 -6.703125 2.828125 -5.9375 2.828125 -5 C 2.828125 -4.03125 3.019531 -3.253906 3.40625 -2.671875 C 3.789062 -2.085938 4.359375 -1.796875 5.109375 -1.796875 C 5.648438 -1.796875 6.097656 -1.957031 6.453125 -2.28125 C 6.816406 -2.601562 7.0625 -2.984375 7.1875 -3.421875 L 9.296875 -3.421875 C 9.085938 -2.390625 8.617188 -1.539062 7.890625 -0.875 C 7.160156 -0.207031 6.222656 0.125 5.078125 0.125 Z M 5.078125 0.125 "/></g></g></g><g fill="#ffffff" fill-opacity="1"><g transform="translate(38.323838, 34.957011)"><g><path d="M 2.953125 -7.984375 L 2.953125 -5.875 L 6.71875 -5.875 L 6.71875 -4.15625 L 2.953125 -4.15625 L 2.953125 -1.921875 L 7.4375 -1.921875 L 7.4375 0 L 0.734375 0 L 0.734375 -9.90625 L 7.4375 -9.90625 L 7.4375 -7.984375 Z M 2.953125 -7.984375 "/></g></g></g><g fill="#ffffff" fill-opacity="1"><g transform="translate(45.561125, 34.957011)"><g/></g></g><g fill="#ffffff" fill-opacity="1"><g transform="translate(48.039664, 34.957011)"><g><path d="M 0.796875 -1.875 L 2.09375 -2.984375 C 2.25 -3.109375 2.394531 -3.226562 2.53125 -3.34375 C 2.664062 -3.457031 2.800781 -3.566406 2.9375 -3.671875 C 3.5625 -4.179688 4.039062 -4.585938 4.375 -4.890625 C 4.71875 -5.191406 5 -5.515625 5.21875 -5.859375 C 5.4375 -6.210938 5.546875 -6.570312 5.546875 -6.9375 C 5.546875 -7.289062 5.4375 -7.59375 5.21875 -7.84375 C 5 -8.101562 4.671875 -8.234375 4.234375 -8.234375 C 3.671875 -8.234375 3.300781 -8.066406 3.125 -7.734375 C 2.945312 -7.410156 2.859375 -7.070312 2.859375 -6.71875 L 2.859375 -6.546875 L 0.6875 -6.546875 C 0.6875 -7.296875 0.832031 -7.941406 1.125 -8.484375 C 1.425781 -9.023438 1.84375 -9.429688 2.375 -9.703125 C 2.90625 -9.984375 3.507812 -10.125 4.1875 -10.125 C 4.894531 -10.125 5.507812 -9.988281 6.03125 -9.71875 C 6.550781 -9.445312 6.945312 -9.078125 7.21875 -8.609375 C 7.488281 -8.148438 7.625 -7.632812 7.625 -7.0625 C 7.625 -6.519531 7.507812 -6.023438 7.28125 -5.578125 C 7.0625 -5.128906 6.796875 -4.742188 6.484375 -4.421875 C 6.171875 -4.109375 5.769531 -3.75 5.28125 -3.34375 L 4.96875 -3.09375 L 3.65625 -1.984375 L 3.65625 -1.90625 L 7.703125 -1.90625 L 7.703125 0 L 0.796875 0 Z M 0.796875 -1.875 "/></g></g></g><g fill="#ffffff" fill-opacity="1"><g transform="translate(55.730165, 34.957011)"><g><path d="M 4.421875 0.21875 C 3.097656 0.21875 2.113281 -0.203125 1.46875 -1.046875 C 0.832031 -1.898438 0.515625 -3.03125 0.515625 -4.4375 L 0.515625 -5.5 C 0.515625 -6.894531 0.832031 -8.007812 1.46875 -8.84375 C 2.113281 -9.675781 3.097656 -10.09375 4.421875 -10.09375 C 5.742188 -10.09375 6.722656 -9.675781 7.359375 -8.84375 C 7.992188 -8.007812 8.3125 -6.894531 8.3125 -5.5 L 8.3125 -4.4375 C 8.3125 -3.03125 7.992188 -1.898438 7.359375 -1.046875 C 6.722656 -0.203125 5.742188 0.21875 4.421875 0.21875 Z M 4.421875 -1.6875 C 4.929688 -1.6875 5.289062 -1.90625 5.5 -2.34375 C 5.71875 -2.789062 5.828125 -3.445312 5.828125 -4.3125 L 5.828125 -5.625 C 5.828125 -6.476562 5.71875 -7.117188 5.5 -7.546875 C 5.289062 -7.984375 4.929688 -8.203125 4.421875 -8.203125 C 3.910156 -8.203125 3.539062 -7.984375 3.3125 -7.546875 C 3.09375 -7.117188 2.984375 -6.476562 2.984375 -5.625 L 2.984375 -4.3125 C 2.984375 -3.457031 3.09375 -2.804688 3.3125 -2.359375 C 3.539062 -1.910156 3.910156 -1.6875 4.421875 -1.6875 Z M 4.421875 -1.6875 "/></g></g></g><g fill="#ffffff" fill-opacity="1"><g transform="translate(63.831378, 34.957011)"><g><path d="M 0.796875 -1.875 L 2.09375 -2.984375 C 2.25 -3.109375 2.394531 -3.226562 2.53125 -3.34375 C 2.664062 -3.457031 2.800781 -3.566406 2.9375 -3.671875 C 3.5625 -4.179688 4.039062 -4.585938 4.375 -4.890625 C 4.71875 -5.191406 5 -5.515625 5.21875 -5.859375 C 5.4375 -6.210938 5.546875 -6.570312 5.546875 -6.9375 C 5.546875 -7.289062 5.4375 -7.59375 5.21875 -7.84375 C 5 -8.101562 4.671875 -8.234375 4.234375 -8.234375 C 3.671875 -8.234375 3.300781 -8.066406 3.125 -7.734375 C 2.945312 -7.410156 2.859375 -7.070312 2.859375 -6.71875 L 2.859375 -6.546875 L 0.6875 -6.546875 C 0.6875 -7.296875 0.832031 -7.941406 1.125 -8.484375 C 1.425781 -9.023438 1.84375 -9.429688 2.375 -9.703125 C 2.90625 -9.984375 3.507812 -10.125 4.1875 -10.125 C 4.894531 -10.125 5.507812 -9.988281 6.03125 -9.71875 C 6.550781 -9.445312 6.945312 -9.078125 7.21875 -8.609375 C 7.488281 -8.148438 7.625 -7.632812 7.625 -7.0625 C 7.625 -6.519531 7.507812 -6.023438 7.28125 -5.578125 C 7.0625 -5.128906 6.796875 -4.742188 6.484375 -4.421875 C 6.171875 -4.109375 5.769531 -3.75 5.28125 -3.34375 L 4.96875 -3.09375 L 3.65625 -1.984375 L 3.65625 -1.90625 L 7.703125 -1.90625 L 7.703125 0 L 0.796875 0 Z M 0.796875 -1.875 "/></g></g></g><g fill="#ffffff" fill-opacity="1"><g transform="translate(71.521878, 34.957011)"><g><path d="M 4.28125 0.125 C 3.539062 0.125 2.90625 -0.0195312 2.375 -0.3125 C 1.84375 -0.601562 1.429688 -0.988281 1.140625 -1.46875 C 0.847656 -1.945312 0.671875 -2.457031 0.609375 -3 L 2.828125 -3 C 2.910156 -2.613281 3.078125 -2.320312 3.328125 -2.125 C 3.585938 -1.925781 3.894531 -1.828125 4.25 -1.828125 C 4.695312 -1.828125 5.039062 -1.976562 5.28125 -2.28125 C 5.53125 -2.59375 5.65625 -2.984375 5.65625 -3.453125 C 5.65625 -3.910156 5.53125 -4.289062 5.28125 -4.59375 C 5.039062 -4.894531 4.679688 -5.046875 4.203125 -5.046875 C 3.804688 -5.046875 3.503906 -4.957031 3.296875 -4.78125 C 3.097656 -4.601562 2.960938 -4.40625 2.890625 -4.1875 L 0.71875 -4.21875 L 0.984375 -9.90625 L 7.296875 -9.90625 L 7.296875 -7.90625 L 2.78125 -7.90625 L 2.671875 -5.71875 L 2.765625 -5.71875 C 2.898438 -5.925781 3.125 -6.125 3.4375 -6.3125 C 3.757812 -6.5 4.210938 -6.59375 4.796875 -6.59375 C 5.753906 -6.59375 6.503906 -6.304688 7.046875 -5.734375 C 7.597656 -5.160156 7.875 -4.394531 7.875 -3.4375 C 7.875 -2.820312 7.738281 -2.238281 7.46875 -1.6875 C 7.207031 -1.144531 6.804688 -0.707031 6.265625 -0.375 C 5.722656 -0.0390625 5.0625 0.125 4.28125 0.125 Z M 4.28125 0.125 "/></g></g></g></g></g><g transform="matrix(1, 0, 0, 1, 31, 13)"><g clip-path="url(#590eac3ddb)"><g fill="#ffffff" fill-opacity="1"><g transform="translate(1.373864, 71.914863)"><g><path d="M 32.046875 -45.484375 C 34.429688 -45.484375 36.6875 -44.851562 38.8125 -43.59375 C 40.9375 -42.332031 42.644531 -40.554688 43.9375 -38.265625 C 45.238281 -35.972656 45.890625 -33.367188 45.890625 -30.453125 C 45.890625 -24.617188 44.394531 -19.28125 41.40625 -14.4375 C 38.414062 -9.59375 34.679688 -5.773438 30.203125 -2.984375 C 25.722656 -0.203125 21.460938 1.1875 17.421875 1.1875 C 14.171875 1.1875 11.515625 0.34375 9.453125 -1.34375 C 7.398438 -3.03125 5.90625 -5.066406 4.96875 -7.453125 C 4.039062 -9.847656 3.578125 -12.109375 3.578125 -14.234375 C 3.578125 -18.742188 4.96875 -23.453125 7.75 -28.359375 C 10.539062 -33.273438 14.144531 -37.359375 18.5625 -40.609375 C 22.976562 -43.859375 27.472656 -45.484375 32.046875 -45.484375 Z M 11.75 -10.453125 C 11.75 -7.796875 12.441406 -5.601562 13.828125 -3.875 C 15.222656 -2.15625 17.015625 -1.296875 19.203125 -1.296875 C 21.265625 -1.296875 23.207031 -1.90625 25.03125 -3.125 C 26.851562 -4.351562 28.394531 -6.03125 29.65625 -8.15625 C 32.113281 -12.144531 34.117188 -16.578125 35.671875 -21.453125 C 37.234375 -26.328125 38.015625 -30.390625 38.015625 -33.640625 C 38.015625 -40.140625 35.5625 -43.390625 30.65625 -43.390625 C 27.132812 -43.390625 23.929688 -41.445312 21.046875 -37.5625 C 18.160156 -33.6875 15.890625 -29.109375 14.234375 -23.828125 C 12.578125 -18.554688 11.75 -14.097656 11.75 -10.453125 Z M 11.75 -10.453125 "/></g></g></g><g fill="#ffffff" fill-opacity="1"><g transform="translate(44.170621, 71.914863)"><g><path d="M 15.625 -22.390625 C 19.800781 -29.296875 24.015625 -34.867188 28.265625 -39.109375 C 32.515625 -43.359375 36.460938 -45.484375 40.109375 -45.484375 C 41.640625 -45.484375 42.914062 -44.96875 43.9375 -43.9375 C 44.96875 -42.914062 45.484375 -41.441406 45.484375 -39.515625 C 45.484375 -37.722656 45.019531 -35.132812 44.09375 -31.75 L 37.828125 -10.25 C 37.222656 -8.125 36.921875 -6.664062 36.921875 -5.875 C 36.921875 -5.269531 37.070312 -4.835938 37.375 -4.578125 C 37.675781 -4.316406 37.988281 -4.1875 38.3125 -4.1875 C 39.113281 -4.1875 40.34375 -5.046875 42 -6.765625 C 43.65625 -8.492188 44.785156 -9.851562 45.390625 -10.84375 L 46.875 -9.65625 C 44.820312 -6.800781 42.515625 -4.28125 39.953125 -2.09375 C 37.398438 0.09375 35 1.1875 32.75 1.1875 C 31.6875 1.1875 30.789062 0.773438 30.0625 -0.046875 C 29.332031 -0.878906 28.96875 -1.992188 28.96875 -3.390625 C 28.96875 -4.847656 29.332031 -6.800781 30.0625 -9.25 L 36.828125 -33.046875 C 36.890625 -33.242188 37.050781 -33.789062 37.3125 -34.6875 C 37.582031 -35.582031 37.71875 -36.460938 37.71875 -37.328125 C 37.71875 -38.191406 37.484375 -38.851562 37.015625 -39.3125 C 36.554688 -39.78125 36.0625 -40.015625 35.53125 -40.015625 C 34.007812 -40.015625 31.800781 -38.71875 28.90625 -36.125 C 26.019531 -33.539062 23.21875 -30.289062 20.5 -26.375 C 18.175781 -23.125 16.300781 -20.117188 14.875 -17.359375 C 13.445312 -14.609375 12.171875 -11.273438 11.046875 -7.359375 C 10.179688 -4.503906 9.484375 -2.050781 8.953125 0 L 1.296875 0 L 10.75 -33.140625 C 10.8125 -33.335938 11.039062 -34.179688 11.4375 -35.671875 C 11.84375 -37.171875 12.046875 -38.253906 12.046875 -38.921875 C 12.046875 -39.710938 11.757812 -40.320312 11.1875 -40.75 C 10.625 -41.1875 9.878906 -41.40625 8.953125 -41.40625 C 8.023438 -41.40625 6.695312 -41.335938 4.96875 -41.203125 L 4.96875 -43 L 20.203125 -45.484375 L 22 -45.484375 L 15.421875 -22.59375 Z M 15.625 -22.390625 "/></g></g></g><g fill="#ffffff" fill-opacity="1"><g transform="translate(86.967379, 71.914863)"><g><path d="M 32.25 -45.484375 C 35.03125 -45.484375 37.367188 -44.785156 39.265625 -43.390625 C 41.160156 -42.003906 42.109375 -40.210938 42.109375 -38.015625 C 42.109375 -35.890625 41.109375 -33.46875 39.109375 -30.75 C 37.117188 -28.03125 33.882812 -25.625 29.40625 -23.53125 C 24.925781 -21.445312 19.238281 -20.304688 12.34375 -20.109375 C 11.945312 -18.773438 11.75 -17.148438 11.75 -15.234375 C 11.75 -11.179688 12.84375 -8.242188 15.03125 -6.421875 C 17.21875 -4.597656 19.640625 -3.6875 22.296875 -3.6875 C 26.742188 -3.6875 31.253906 -5.90625 35.828125 -10.34375 L 37.125 -9.15625 C 30.019531 -2.257812 23.148438 1.1875 16.515625 1.1875 C 13.796875 1.1875 11.425781 0.507812 9.40625 -0.84375 C 7.382812 -2.207031 5.859375 -3.984375 4.828125 -6.171875 C 3.796875 -8.359375 3.28125 -10.613281 3.28125 -12.9375 C 3.28125 -17.582031 4.625 -22.457031 7.3125 -27.5625 C 10 -32.675781 13.582031 -36.941406 18.0625 -40.359375 C 22.539062 -43.773438 27.269531 -45.484375 32.25 -45.484375 Z M 12.9375 -22 C 17.445312 -22.332031 21.097656 -23.09375 23.890625 -24.28125 C 26.609375 -25.476562 28.8125 -27.019531 30.5 -28.90625 C 32.195312 -30.800781 33.410156 -32.660156 34.140625 -34.484375 C 34.867188 -36.304688 35.234375 -37.816406 35.234375 -39.015625 C 35.234375 -40.140625 34.816406 -41.179688 33.984375 -42.140625 C 33.160156 -43.109375 31.984375 -43.59375 30.453125 -43.59375 C 27.796875 -43.59375 25.222656 -42.363281 22.734375 -39.90625 C 20.253906 -37.457031 18.132812 -34.539062 16.375 -31.15625 C 14.613281 -27.769531 13.46875 -24.71875 12.9375 -22 Z M 12.9375 -22 "/></g></g></g><g fill="#ffffff" fill-opacity="1"><g transform="translate(123.593335, 71.914863)"><g/></g></g><g fill="#ffffff" fill-opacity="1"><g transform="translate(141.507802, 71.914863)"><g><path d="M 23.484375 -45.484375 C 25.878906 -45.484375 28.132812 -44.921875 30.25 -43.796875 C 31.445312 -43.265625 32.28125 -43 32.75 -43 C 34.007812 -43 35.035156 -43.828125 35.828125 -45.484375 L 37.625 -45.484375 L 34.9375 -30.359375 L 33.140625 -30.359375 C 33.140625 -34.671875 32.289062 -37.921875 30.59375 -40.109375 C 28.90625 -42.296875 26.835938 -43.390625 24.390625 -43.390625 C 22.597656 -43.390625 21.117188 -42.828125 19.953125 -41.703125 C 18.796875 -40.578125 18.21875 -39.316406 18.21875 -37.921875 C 18.21875 -36.328125 18.679688 -34.71875 19.609375 -33.09375 C 20.535156 -31.46875 21.992188 -29.328125 23.984375 -26.671875 C 26.242188 -23.753906 27.96875 -21.195312 29.15625 -19 C 30.351562 -16.8125 30.953125 -14.523438 30.953125 -12.140625 C 30.953125 -9.890625 30.335938 -7.75 29.109375 -5.71875 C 27.878906 -3.695312 26.132812 -2.039062 23.875 -0.75 C 21.625 0.539062 19.007812 1.1875 16.03125 1.1875 C 14.300781 1.1875 12.207031 0.757812 9.75 -0.09375 C 8.03125 -0.625 6.90625 -0.890625 6.375 -0.890625 C 5.113281 -0.890625 3.984375 -0.195312 2.984375 1.1875 L 0.890625 1.1875 L 3.78125 -14.734375 L 5.765625 -14.734375 C 6.035156 -10.753906 6.847656 -7.453125 8.203125 -4.828125 C 9.566406 -2.203125 12.109375 -0.890625 15.828125 -0.890625 C 18.410156 -0.890625 20.429688 -1.769531 21.890625 -3.53125 C 23.359375 -5.289062 24.09375 -7.132812 24.09375 -9.0625 C 24.09375 -10.445312 23.691406 -11.882812 22.890625 -13.375 C 22.097656 -14.875 21.203125 -16.351562 20.203125 -17.8125 C 19.210938 -19.269531 18.550781 -20.234375 18.21875 -20.703125 L 16.71875 -22.890625 C 15 -25.273438 13.722656 -27.332031 12.890625 -29.0625 C 12.054688 -30.789062 11.640625 -32.648438 11.640625 -34.640625 C 11.640625 -37.023438 12.269531 -39.03125 13.53125 -40.65625 C 14.789062 -42.28125 16.347656 -43.488281 18.203125 -44.28125 C 20.066406 -45.082031 21.828125 -45.484375 23.484375 -45.484375 Z M 23.484375 -45.484375 "/></g></g></g><g clip-path="url(#91a33ecc4a)"><g fill="#ffffff" fill-opacity="1"><g transform="translate(172.858699, 71.914863)"><g><path d="M 29.265625 -71.359375 L 15.234375 -22.5 L 15.421875 -22.296875 C 19.804688 -29.460938 24.117188 -35.117188 28.359375 -39.265625 C 32.609375 -43.410156 36.492188 -45.484375 40.015625 -45.484375 C 41.273438 -45.484375 42.484375 -44.9375 43.640625 -43.84375 C 44.804688 -42.75 45.390625 -41.304688 45.390625 -39.515625 C 45.390625 -37.390625 44.925781 -34.703125 44 -31.453125 L 38.125 -11.25 C 37.65625 -9.71875 37.320312 -8.519531 37.125 -7.65625 C 36.925781 -6.800781 36.828125 -6.070312 36.828125 -5.46875 C 36.828125 -4.875 36.941406 -4.441406 37.171875 -4.171875 C 37.398438 -3.910156 37.648438 -3.78125 37.921875 -3.78125 C 38.648438 -3.78125 39.789062 -4.59375 41.34375 -6.21875 C 42.90625 -7.84375 44.1875 -9.351562 45.1875 -10.75 L 46.6875 -9.65625 C 44.957031 -7.0625 42.765625 -4.601562 40.109375 -2.28125 C 37.453125 0.03125 35.03125 1.1875 32.84375 1.1875 C 31.644531 1.1875 30.695312 0.757812 30 -0.09375 C 29.3125 -0.957031 28.96875 -1.953125 28.96875 -3.078125 C 28.96875 -4.609375 29.332031 -6.566406 30.0625 -8.953125 L 36.03125 -29.859375 C 37.019531 -33.109375 37.515625 -35.363281 37.515625 -36.625 C 37.515625 -37.625 37.265625 -38.421875 36.765625 -39.015625 C 36.273438 -39.609375 35.664062 -39.90625 34.9375 -39.90625 C 32.875 -39.90625 30.265625 -38.296875 27.109375 -35.078125 C 23.960938 -31.859375 20.664062 -27.566406 17.21875 -22.203125 C 14.957031 -18.546875 13.195312 -14.59375 11.9375 -10.34375 L 8.859375 0 L 1.390625 0 L 16.921875 -54.046875 C 17.847656 -57.160156 18.507812 -59.476562 18.90625 -61 C 19.3125 -62.53125 19.515625 -63.695312 19.515625 -64.5 C 19.515625 -65.6875 19.082031 -66.429688 18.21875 -66.734375 C 17.351562 -67.035156 15.925781 -67.1875 13.9375 -67.1875 L 13.9375 -68.96875 L 27.5625 -71.359375 Z M 29.265625 -71.359375 "/></g></g></g></g><g fill="#ffffff" fill-opacity="1"><g transform="translate(215.655457, 71.914863)"><g><path d="M 32.046875 -45.484375 C 34.429688 -45.484375 36.6875 -44.851562 38.8125 -43.59375 C 40.9375 -42.332031 42.644531 -40.554688 43.9375 -38.265625 C 45.238281 -35.972656 45.890625 -33.367188 45.890625 -30.453125 C 45.890625 -24.617188 44.394531 -19.28125 41.40625 -14.4375 C 38.414062 -9.59375 34.679688 -5.773438 30.203125 -2.984375 C 25.722656 -0.203125 21.460938 1.1875 17.421875 1.1875 C 14.171875 1.1875 11.515625 0.34375 9.453125 -1.34375 C 7.398438 -3.03125 5.90625 -5.066406 4.96875 -7.453125 C 4.039062 -9.847656 3.578125 -12.109375 3.578125 -14.234375 C 3.578125 -18.742188 4.96875 -23.453125 7.75 -28.359375 C 10.539062 -33.273438 14.144531 -37.359375 18.5625 -40.609375 C 22.976562 -43.859375 27.472656 -45.484375 32.046875 -45.484375 Z M 11.75 -10.453125 C 11.75 -7.796875 12.441406 -5.601562 13.828125 -3.875 C 15.222656 -2.15625 17.015625 -1.296875 19.203125 -1.296875 C 21.265625 -1.296875 23.207031 -1.90625 25.03125 -3.125 C 26.851562 -4.351562 28.394531 -6.03125 29.65625 -8.15625 C 32.113281 -12.144531 34.117188 -16.578125 35.671875 -21.453125 C 37.234375 -26.328125 38.015625 -30.390625 38.015625 -33.640625 C 38.015625 -40.140625 35.5625 -43.390625 30.65625 -43.390625 C 27.132812 -43.390625 23.929688 -41.445312 21.046875 -37.5625 C 18.160156 -33.6875 15.890625 -29.109375 14.234375 -23.828125 C 12.578125 -18.554688 11.75 -14.097656 11.75 -10.453125 Z M 11.75 -10.453125 "/></g></g></g><g fill="#ffffff" fill-opacity="1"><g transform="translate(258.452214, 71.914863)"><g><path d="M 27.078125 -56.53125 L 28.96875 -56.53125 L 25.484375 -44.390625 L 32.453125 -44.390625 L 31.65625 -41.3125 L 24.578125 -41.3125 L 15.71875 -10.34375 C 14.925781 -7.695312 14.53125 -5.90625 14.53125 -4.96875 C 14.53125 -3.78125 15.03125 -3.1875 16.03125 -3.1875 C 16.882812 -3.1875 17.941406 -3.664062 19.203125 -4.625 C 20.460938 -5.59375 21.640625 -6.671875 22.734375 -7.859375 C 23.835938 -9.054688 24.421875 -9.785156 24.484375 -10.046875 L 26.375 -10.046875 C 23.789062 -5.929688 21.203125 -3.03125 18.609375 -1.34375 C 16.023438 0.34375 13.671875 1.1875 11.546875 1.1875 C 10.421875 1.1875 9.390625 0.757812 8.453125 -0.09375 C 7.523438 -0.957031 7.0625 -2.285156 7.0625 -4.078125 C 7.0625 -5.273438 7.460938 -7.363281 8.265625 -10.34375 L 17.125 -41.3125 L 9.65625 -41.3125 L 10.34375 -43.5 C 14.257812 -44.15625 17.460938 -45.660156 19.953125 -48.015625 C 22.441406 -50.378906 24.816406 -53.21875 27.078125 -56.53125 Z M 27.078125 -56.53125 "/></g></g></g><g fill="#ffffff" fill-opacity="1"><g transform="translate(284.627592, 71.914863)"><g><path d="M 7.171875 -8.859375 C 8.554688 -8.859375 9.75 -8.359375 10.75 -7.359375 C 11.75 -6.367188 12.25 -5.207031 12.25 -3.875 C 12.25 -2.488281 11.75 -1.296875 10.75 -0.296875 C 9.75 0.691406 8.554688 1.1875 7.171875 1.1875 C 5.773438 1.1875 4.578125 0.691406 3.578125 -0.296875 C 2.585938 -1.296875 2.09375 -2.488281 2.09375 -3.875 C 2.09375 -5.207031 2.585938 -6.367188 3.578125 -7.359375 C 4.578125 -8.359375 5.773438 -8.859375 7.171875 -8.859375 Z M 7.171875 -8.859375 "/></g></g></g></g></g></svg>
